<?xml version="1.0" encoding="UTF-8" standalone="no"?>
<!-- Created with Inkscape (http://www.inkscape.org/) -->

<svg
   width="12.678mm"
   height="8.4989996mm"
   viewBox="0 0 12.678002 8.4989996"
   version="1.1"
   id="svg1"
   inkscape:version="1.4 (86a8ad7, 2024-10-11)"
   sodipodi:docname="comment1.svg"
   xmlns:inkscape="http://www.inkscape.org/namespaces/inkscape"
   xmlns:sodipodi="http://sodipodi.sourceforge.net/DTD/sodipodi-0.dtd"
   xmlns="http://www.w3.org/2000/svg"
   xmlns:svg="http://www.w3.org/2000/svg">
  <sodipodi:namedview
     id="namedview1"
     pagecolor="#ffffff"
     bordercolor="#000000"
     borderopacity="0.25"
     inkscape:showpageshadow="2"
     inkscape:pageopacity="0.0"
     inkscape:pagecheckerboard="0"
     inkscape:deskcolor="#d1d1d1"
     inkscape:document-units="mm"
     inkscape:zoom="4"
     inkscape:cx="14.875"
     inkscape:cy="14.875"
     inkscape:window-width="1920"
     inkscape:window-height="1017"
     inkscape:window-x="-8"
     inkscape:window-y="-8"
     inkscape:window-maximized="1"
     inkscape:current-layer="layer1" />
  <defs
     id="defs1">
    <inkscape:path-effect
       effect="bspline"
       id="path-effect2"
       is_visible="true"
       lpeversion="1.3"
       weight="33.333333"
       steps="2"
       helper_size="0"
       apply_no_weight="true"
       apply_with_weight="true"
       only_selected="false"
       uniform="false" />
  </defs>
  <g
     inkscape:label="Слой 1"
     inkscape:groupmode="layer"
     id="layer1">
    <path
       style="fill:#fefefe;fill-opacity:1;stroke:#f96424;stroke-width:0.415151;stroke-dasharray:none;stroke-opacity:1"
       d="m 41.406902,151.93159 c 0,-1.76135 0,-5.28405 0,-8.80675 0,-0.33405 0,-0.66809 0.125271,-0.83512 0.125271,-0.16702 0.375802,-0.16702 2.281436,-0.16702 1.905634,0 5.466222,0 7.379415,0 1.913192,0 2.178908,0 2.317462,0.25433 0.138554,0.25434 0.14994,0.763 0.155634,2.67769 0.0057,1.91468 0.0057,5.23524 0.0057,7.06467 0,1.82942 0,2.16762 -0.159919,2.33941 -0.15992,0.17179 -0.799852,0.18252 -1.92993,0.17984 -1.130078,-0.003 -3.390106,-0.008 -4.606037,-0.0107 -1.215931,-0.003 -1.387714,-0.003 -1.73398,0.82943 -0.346266,0.83212 -0.866987,2.49628 -0.977225,2.52309 -0.110237,0.0268 0.19001,-1.58369 0.343935,-2.41555 0.153926,-0.83187 0.161511,-0.88496 0.165286,-0.91163 0.0038,-0.0267 0.0038,-0.0268 -0.430544,-0.0269 -0.434296,-1.3e-4 -1.302785,-1.3e-4 -1.864512,-1.3e-4 -0.561726,0 -0.816657,0 -0.94417,-0.15555 -0.127512,-0.15554 -0.1276,-0.46663 -0.127665,-0.62218 -6.6e-5,-0.15555 -1.08e-4,-0.15555 -1.5e-4,-1.91691 z"
       id="path2"
       inkscape:path-effect="#path-effect2"
       inkscape:original-d="m 41.406902,153.69294 c 0,-3.5227 0,-7.0454 0,-10.5681 0,0 0,-0.66809 0,-1.00214 0.250542,0 0.501073,0 0.75161,0 3.560731,0 7.121319,0 10.681978,0 0.265726,0 0.531442,0 0.797163,0 0.01138,0.50867 0.02278,1.01733 0.03416,1.526 0,3.3207 0,6.64126 0,9.9619 0,0.33821 0,0.67641 0,1.01462 -0.319929,0 -1.279694,0.0161 -0.959771,0.0161 -2.260131,-0.0161 -4.520171,-0.0161 -6.780255,-0.0161 -0.171791,0 -0.343574,0 -0.515363,0 -0.520742,1.66423 -1.041463,3.32839 -1.562195,4.99258 0.300257,-1.61056 0.600501,-3.22107 0.900753,-4.8316 0.0076,-0.0532 0.01519,-0.10629 0.02278,-0.15944 -4.5e-5,-1.8e-4 -8.7e-5,-2.6e-4 -1.32e-4,-5.3e-4 -0.868527,0 -1.737016,0 -2.605527,0 -0.254942,0 -0.509873,0 -0.76481,0 -1.29e-4,-0.31109 -1.76e-4,-0.62218 -2.64e-4,-0.93327 -4.2e-5,-1e-5 -1.27e-4,-2e-5 -1.27e-4,-2e-5 z"
       transform="matrix(1,0,0,0.52219292,-41.197747,-74.10592)" />
  </g>
</svg>
