<svg width="364" height="70" viewBox="0 0 364 70" fill="none" xmlns="http://www.w3.org/2000/svg">
<g clip-path="url(#clip0_27_36)">
<path d="M184.395 23.4736H191.547C194.51 23.4736 196.623 23.913 197.885 24.7918C199.146 25.6706 199.777 26.9325 199.777 28.5779C199.777 29.4753 199.614 30.2372 199.286 30.8635C198.969 31.4898 198.562 31.9853 198.067 32.3499C197.58 32.7144 197.081 32.9622 196.566 33.0931V33.2332C197.127 33.3735 197.684 33.6072 198.236 33.9344C198.796 34.2523 199.259 34.7337 199.624 35.3787C199.997 36.0144 200.184 36.8792 200.184 37.9729C200.184 39.2162 199.866 40.2866 199.231 41.184C198.604 42.0814 197.707 42.7733 196.538 43.2593C195.37 43.7361 193.982 43.9745 192.373 43.9745H184.395V23.4736ZM189.934 31.3403H191.603C192.519 31.3403 193.164 31.1533 193.537 30.7794C193.912 30.3961 194.098 29.9334 194.098 29.3911C194.098 28.8302 193.884 28.4049 193.453 28.1151C193.033 27.816 192.379 27.6664 191.49 27.6664H189.934V31.3403ZM189.934 35.3927V39.6977H191.883C192.846 39.6977 193.519 39.492 193.902 39.0807C194.286 38.66 194.477 38.1365 194.477 37.5102C194.477 37.1455 194.393 36.8043 194.225 36.4865C194.066 36.1593 193.791 35.8976 193.397 35.7012C193.004 35.4956 192.462 35.3927 191.771 35.3927H189.934ZM208.57 27.8066C209.869 27.8066 211.052 27.9515 212.117 28.2413C213.183 28.5217 214.03 28.9752 214.656 29.6015C215.291 30.2278 215.609 31.0645 215.609 32.1115C215.609 32.9716 215.342 33.7101 214.809 34.327C214.286 34.9347 213.594 35.3553 212.734 35.589V35.7293C213.575 35.8415 214.254 36.0798 214.767 36.4445C215.291 36.7997 215.67 37.239 215.903 37.7625C216.147 38.2767 216.268 38.8422 216.268 39.4593C216.268 40.4876 215.988 41.3616 215.427 42.0814C214.866 42.7919 213.996 43.3342 212.819 43.708C211.65 44.0727 210.144 44.2549 208.303 44.2549C207.34 44.2549 206.522 44.2175 205.849 44.1427C205.185 44.068 204.597 43.9651 204.082 43.8343C203.568 43.694 203.054 43.5398 202.541 43.3715V39.1788C203.176 39.3938 203.947 39.6181 204.854 39.8518C205.761 40.0762 206.808 40.1884 207.995 40.1884C208.808 40.1884 209.411 40.1136 209.803 39.964C210.206 39.8052 210.468 39.6181 210.589 39.4031C210.711 39.1882 210.771 38.9965 210.771 38.8282C210.771 38.5384 210.696 38.3001 210.547 38.1131C210.407 37.9168 210.117 37.7672 209.678 37.6644C209.247 37.5616 208.588 37.5102 207.701 37.5102H205.639V33.9484H207.363C208.504 33.9484 209.299 33.855 209.748 33.668C210.206 33.4717 210.434 33.1725 210.434 32.7705C210.434 32.4433 210.271 32.1863 209.944 31.9993C209.617 31.8123 209.079 31.7189 208.332 31.7189C207.574 31.7189 206.859 31.803 206.186 31.9713C205.522 32.1395 204.821 32.3872 204.082 32.7144L202.541 29.0125C203.485 28.6106 204.429 28.3114 205.373 28.1151C206.317 27.9095 207.382 27.8066 208.57 27.8066ZM222.606 43.9745H216.801L220.881 37.9448C220.395 37.6738 219.952 37.3231 219.55 36.8932C219.148 36.4538 218.824 35.9256 218.581 35.3087C218.339 34.6916 218.217 33.9812 218.217 33.1772C218.217 31.4946 218.839 30.2278 220.082 29.3771C221.326 28.517 223.017 28.0871 225.159 28.0871H232.745V43.9745H227.261V38.4637H225.65L222.606 43.9745ZM223.7 33.3454C223.7 33.7381 223.845 34.0933 224.135 34.4112C224.424 34.7197 224.948 34.8739 225.705 34.8739H227.261V31.6768H225.677C224.976 31.6768 224.471 31.8404 224.162 32.1676C223.855 32.4947 223.7 32.8874 223.7 33.3454ZM252.488 43.9745H247.005V32.1676H243.78C243.584 34.3738 243.341 36.2481 243.051 37.7906C242.771 39.3237 242.392 40.567 241.915 41.5205C241.438 42.4741 240.831 43.1706 240.092 43.6099C239.363 44.0399 238.451 44.2549 237.357 44.2549C236.928 44.2549 236.483 44.2128 236.026 44.1287C235.577 44.0539 235.194 43.9558 234.876 43.8343V39.7537C235.063 39.8472 235.255 39.9127 235.45 39.95C235.657 39.9874 235.876 40.0061 236.11 40.0061C236.343 40.0061 236.563 39.9313 236.769 39.7817C236.974 39.6322 237.171 39.333 237.357 38.8843C237.554 38.4356 237.736 37.7766 237.905 36.9072C238.073 36.0284 238.237 34.8739 238.396 33.4436C238.555 32.0134 238.704 30.2278 238.844 28.0871H252.488V43.9745ZM261.294 28.0871V34.271C261.294 34.5982 261.285 34.9394 261.266 35.2946C261.257 35.6404 261.238 35.9864 261.21 36.3323C261.192 36.6781 261.168 37.0147 261.14 37.3419C261.122 37.6691 261.103 37.9729 261.084 38.2533L267.085 28.0871H273.059V43.9745H268.067V38.2253C268.067 37.7298 268.071 37.2157 268.081 36.6828C268.1 36.1499 268.123 35.6311 268.151 35.1263C268.179 34.6215 268.217 34.1634 268.263 33.7521L262.206 43.9745H256.288V28.0871H261.294ZM275.555 38.4637V34.0887H283.478V38.4637H275.555ZM293.223 44.2549C291.616 44.2549 290.217 43.9698 289.03 43.3996C287.844 42.8199 286.923 41.9319 286.268 40.7353C285.623 39.5294 285.3 37.9869 285.3 36.1079C285.3 34.1821 285.66 32.6069 286.38 31.3824C287.11 30.1577 288.105 29.2556 289.367 28.676C290.629 28.0964 292.06 27.8066 293.658 27.8066C294.63 27.8066 295.551 27.9141 296.42 28.1292C297.299 28.3441 298.112 28.6386 298.861 29.0125L297.248 33.0651C296.594 32.7752 295.981 32.5462 295.411 32.3779C294.85 32.2003 294.266 32.1115 293.658 32.1115C293.106 32.1115 292.62 32.2564 292.2 32.5462C291.779 32.836 291.451 33.2753 291.218 33.8643C290.985 34.4439 290.867 35.1824 290.867 36.0798C290.867 36.996 290.985 37.7345 291.218 38.2954C291.461 38.8563 291.793 39.2629 292.213 39.5153C292.644 39.7677 293.134 39.8939 293.686 39.8939C294.48 39.8939 295.271 39.7724 296.056 39.5294C296.85 39.2769 297.603 38.9311 298.313 38.4917V42.8527C297.659 43.2827 296.92 43.6239 296.098 43.8763C295.275 44.1287 294.317 44.2549 293.223 44.2549ZM308.62 27.8066C310.162 27.8066 311.495 28.0777 312.616 28.6199C313.738 29.1528 314.602 29.9567 315.21 31.0317C315.818 32.1068 316.122 33.4529 316.122 35.0702V37.5102H306.32C306.367 38.3422 306.675 39.0246 307.245 39.5574C307.825 40.0903 308.676 40.3567 309.798 40.3567C310.788 40.3567 311.696 40.2586 312.518 40.0622C313.35 39.8659 314.206 39.5621 315.084 39.1508V43.091C314.318 43.493 313.481 43.7875 312.574 43.9745C311.667 44.1614 310.522 44.2549 309.139 44.2549C307.541 44.2549 306.11 43.9698 304.848 43.3996C303.586 42.8294 302.59 41.9459 301.861 40.7493C301.141 39.5527 300.781 38.015 300.781 36.1359C300.781 34.2289 301.109 32.663 301.763 31.4384C302.417 30.2044 303.333 29.293 304.511 28.7041C305.689 28.1057 307.059 27.8066 308.62 27.8066ZM308.816 31.5366C308.171 31.5366 307.628 31.7422 307.19 32.1535C306.76 32.5555 306.507 33.1912 306.432 34.0606H311.144C311.135 33.5932 311.041 33.1678 310.864 32.7845C310.686 32.4013 310.424 32.0975 310.078 31.8731C309.742 31.6487 309.321 31.5366 308.816 31.5366ZM335.164 43.9745H329.681V32.1676H326.457C326.26 34.3738 326.017 36.2481 325.727 37.7906C325.447 39.3237 325.068 40.567 324.592 41.5205C324.114 42.4741 323.507 43.1706 322.768 43.6099C322.04 44.0399 321.128 44.2549 320.034 44.2549C319.604 44.2549 319.16 44.2128 318.702 44.1287C318.253 44.0539 317.87 43.9558 317.552 43.8343V39.7537C317.739 39.8472 317.931 39.9127 318.127 39.95C318.333 39.9874 318.552 40.0061 318.786 40.0061C319.02 40.0061 319.24 39.9313 319.445 39.7817C319.651 39.6322 319.847 39.333 320.034 38.8843C320.23 38.4356 320.412 37.7766 320.581 36.9072C320.749 36.0284 320.913 34.8739 321.072 33.4436C321.231 32.0134 321.38 30.2278 321.521 28.0871H335.164V43.9745ZM343.97 28.0871V34.271C343.97 34.5982 343.961 34.9394 343.942 35.2946C343.933 35.6404 343.914 35.9864 343.887 36.3323C343.868 36.6781 343.845 37.0147 343.816 37.3419C343.798 37.6691 343.779 37.9729 343.76 38.2533L349.761 28.0871H355.736V43.9745H350.743V38.2253C350.743 37.7298 350.748 37.2157 350.757 36.6828C350.776 36.1499 350.8 35.6311 350.827 35.1263C350.855 34.6215 350.893 34.1634 350.94 33.7521L344.882 43.9745H338.964V28.0871H343.97Z" fill="#F96625"/>
<path d="M1.79492 46.2925L20.0391 62.5897H19.9829V69.1025H145.512V62.5897H145.519L163.333 46.2925H28.1432H1.79492Z" fill="#9F46FF" stroke="#9F46FF" stroke-width="1.51181"/>
<path d="M78.495 11.6952C71.8259 0.897479 71.8259 0.897461 71.8259 0.897461H93.7382L86.752 11.6952H78.495Z" fill="#9F46FF" fill-opacity="0.804979" stroke="#9F46FF" stroke-width="1.51181"/>
<path d="M82.4271 11.5372C71.0451 11.5617 59.691 14.9088 50.1178 21.0659C40.615 27.1778 32.9053 36.0385 28.1538 46.2895H136.732L136.208 46.4365L136.956 46.2895C132.171 35.9619 124.377 27.0508 114.778 20.9334C105.18 14.8159 93.8091 11.5137 82.4271 11.5372Z" fill="#9F46FF" fill-opacity="0.66" stroke="#9F46FF" stroke-width="1.51181"/>
</g>
<defs>
<clipPath id="clip0_27_36">
<rect width="363.462" height="70" fill="white"/>
</clipPath>
</defs>
</svg>
